<?xml version="1.0" encoding="utf-8"?>
<!-- Generator: Adobe Illustrator 26.0.3, SVG Export Plug-In . SVG Version: 6.00 Build 0)  -->
<svg version="1.0" id="katman_1" xmlns="http://www.w3.org/2000/svg" xmlns:xlink="http://www.w3.org/1999/xlink" x="0px" y="0px"
	 viewBox="0 0 800 600" style="enable-background:new 0 0 800 600;" xml:space="preserve">
<style type="text/css">
	.st0{fill:#95C93D;}
	.st1{fill:#4D5B31;}
	.st2{fill:#6BA442;}
	.st3{fill:#434244;}
</style>
<g>
	<g>
		<g>
			<path class="st0" d="M134.1,312.9H134H89.8c0,0.2,0,0.5,0,0.6c0,0.5,0,0.8,0.2,1.3c0,0.2,0,0.3,0,0.5c0,0.5,0.2,0.9,0.2,1.4
				c0,0.2,0,0.2,0,0.3c0,0.5,0.2,1.1,0.2,1.6v0.2c0,0.6,0.2,1.1,0.2,1.7l0,0c0.5,3.6,1.3,7,2.3,10.5l0,0c0.2,0.5,0.3,1.1,0.5,1.6
				c0,0,0,0,0,0.2c0,0,0,0,0,0.2c0.2,0.5,0.3,0.9,0.5,1.4c0,0.2,0.2,0.3,0.2,0.3c0.2,0.5,0.3,0.8,0.5,1.3c0,0.2,0.2,0.3,0.2,0.6
				c0.2,0.3,0.3,0.6,0.5,1.1c0.2,0.3,0.2,0.5,0.3,0.8c0.2,0.3,0.2,0.5,0.3,0.8c0.2,0.3,0.3,0.6,0.5,0.9c0.2,0.2,0.2,0.3,0.3,0.6
				c0.2,0.3,0.3,0.8,0.6,1.3c0,0.2,0.2,0.3,0.2,0.3c0.2,0.5,0.5,0.9,0.6,1.4c0,0,0,0.2,0.2,0.2c0.3,0.5,0.5,0.9,0.8,1.4l0,0
				c0,0.2,0.2,0.2,0.2,0.3l37.9-22.9l0.2-0.2C135.4,319.7,134.5,316.2,134.1,312.9z"/>
			<polygon class="st0" points="91.9,333.3 91.9,333.3 93.4,332.8 			"/>
			<path class="st1" d="M145.1,333.3L145.1,333.3l-31.3,31.3c0.2,0.2,0.3,0.3,0.5,0.5c0.3,0.3,0.6,0.5,0.9,0.8
				c0.2,0.2,0.3,0.3,0.5,0.5c0.3,0.3,0.8,0.6,1.1,0.9c0.2,0.2,0.2,0.2,0.3,0.3c0.5,0.3,0.8,0.6,1.3,0.9l0.2,0.2
				c0.5,0.3,0.9,0.6,1.4,1.1l0,0c1.9,1.4,3.8,2.7,5.8,3.9l0.2,0.2c0.3,0.2,0.8,0.5,1.1,0.6c0.3,0.2,0.5,0.3,0.6,0.5
				c0.2,0.2,0.5,0.3,0.6,0.3c0.5,0.2,0.8,0.5,1.3,0.6c0,0,0.2,0,0.2,0.2c1.1,0.6,2.3,1.1,3.4,1.7l0,0l1.1-2.7l15.7-38.2v-0.2
				C148.2,335.6,146.5,334.5,145.1,333.3z"/>
			<path class="st2" d="M141.8,330.1c-0.3-0.3-0.6-0.8-0.9-1.1c-0.3-0.3-0.6-0.6-0.8-1.1c-0.3-0.5-0.6-0.8-0.9-1.3
				c-0.3-0.5-0.6-0.8-0.8-1.3l-37.9,22.9c0.6,0.9,1.3,1.9,1.9,2.8c0,0,0,0,0,0.2l0,0l0,0c0,0,0,0,0,0.2l0,0c0,0.2,0.2,0.2,0.2,0.2
				l0,0l0,0l0,0c0.6,0.9,1.4,1.9,2,2.8l0,0l0,0c0.3,0.5,0.6,0.8,0.9,1.3l0.2,0.2c0.3,0.5,0.6,0.8,0.9,1.3c0.2,0.2,0.2,0.2,0.3,0.3
				c0.3,0.3,0.6,0.8,0.9,1.1c0.2,0.2,0.3,0.3,0.5,0.5c0.3,0.3,0.5,0.6,0.8,0.9c0.2,0.2,0.3,0.3,0.5,0.5l0.2,0.2
				c0.2,0.2,0.3,0.5,0.6,0.6c0.2,0.2,0.2,0.2,0.3,0.3c0.3,0.3,0.6,0.8,1.1,1.1l31.3-31.3C142.4,330.9,142.1,330.5,141.8,330.1z"/>
			<path class="st1" d="M183.3,333.3c-0.3,0.3-0.6,0.6-1.1,0.8l0.2,0.2l22.9,37.9c1.1-0.6,2-1.4,3.1-2.2c2.2-1.6,4.4-3.4,6.4-5.3
				L183.3,333.3L183.3,333.3z"/>
			<path class="st0" d="M202.3,373.8L202.3,373.8c0.2,0,0.2-0.2,0.3-0.2l0,0C202.4,373.7,202.4,373.7,202.3,373.8z"/>
			<polygon class="st0" points="202.3,373.8 202.3,373.8 202.1,373.7 			"/>
			<path class="st0" d="M202.3,373.8c0.2,0,0.2-0.2,0.3-0.2C202.4,373.7,202.4,373.7,202.3,373.8L202.3,373.8z"/>
			<path class="st0" d="M201.8,372.3L201,371l-21.3-35.4c-0.5,0.3-0.9,0.5-1.3,0.8c-0.5,0.3-0.9,0.5-1.4,0.6c-4.1,1.9-8.5,3-13,3
				c-3,0-5.8-0.5-8.6-1.3c-0.5-0.2-0.9-0.3-1.4-0.5s-0.9-0.3-1.4-0.5L137,375.9l-0.6,1.6l-0.5,1.3l0,0h0.2h0.2l0,0l0,0l0,0
				c0.3,0.2,0.8,0.3,1.1,0.5c0.5,0.2,0.9,0.3,1.4,0.5c0.3,0.2,0.5,0.2,0.8,0.3l0,0l0,0c4.9,1.7,10,3,15.2,3.6c0.2,0,0.5,0,0.6,0.2
				c0.2,0,0.5,0,0.6,0c0.3,0,0.8,0.2,1.3,0.2c0.2,0,0.2,0,0.3,0c0.5,0,0.9,0.2,1.4,0.2c0.2,0,0.3,0,0.5,0c0.5,0,0.9,0,1.3,0.2
				c0.3,0,0.5,0,0.8,0s0.6,0,1.1,0s0.9,0,1.4,0c0.2,0,0.2,0,0.3,0c4.1,0,8.3-0.3,12.4-1.1l0,0h0.2c0.5-0.2,0.9-0.2,1.3-0.3
				c0.3,0,0.5-0.2,0.8-0.2c0.3,0,0.5-0.2,0.8-0.2c0.5-0.2,0.8-0.2,1.3-0.3c0.2,0,0.2,0,0.2,0c6.3-1.4,12.2-3.8,17.9-6.7l0,0l0,0
				c0.3-0.2,0.8-0.5,1.1-0.6c0.5-0.3,0.9-0.5,1.3-0.8c0.3-0.2,0.6-0.3,0.9-0.5l0,0l0,0l0,0l0,0l0,0l0,0v-0.2v0.2l0,0l0,0l0,0
				c0.2,0,0.2-0.2,0.3-0.2l0,0L201.8,372.3z"/>
			<path class="st0" d="M145.1,286.6c0.3-0.3,0.6-0.6,1.1-0.8l-0.2-0.2l-22.9-37.9c-1.1,0.6-2,1.4-3.1,2.2c-2.2,1.6-4.4,3.4-6.4,5.3
				L145.1,286.6L145.1,286.6z"/>
			<path class="st1" d="M111.6,257.3c-0.3,0.3-0.6,0.8-1.1,1.1c-0.3,0.3-0.6,0.8-1.1,1.1c-2.3,2.5-4.4,5.2-6.3,7.8
				c-0.2,0.2-0.2,0.3-0.3,0.3c-0.2,0.3-0.5,0.6-0.6,0.9c-0.2,0.3-0.5,0.6-0.6,0.9c-0.2,0.2-0.2,0.3-0.2,0.3
				c-7.2,11.3-11,24.1-11.6,37c0,0.5,0,0.9,0,1.6c0,0.5,0,0.9,0,1.6h44.3c0-0.5,0-0.9,0-1.6c0-0.5,0-0.9,0.2-1.6
				c0.6-5.8,2.8-11.4,6.7-16.1c0.3-0.3,0.6-0.8,0.9-1.1c0.3-0.3,0.6-0.8,0.9-1.1L111.6,257.3z"/>
			<path class="st1" d="M202.7,246.2l-0.2-0.2c-0.3-0.3-0.8-0.5-1.1-0.6c-0.2-0.2-0.5-0.3-0.6-0.3c-0.2-0.2-0.5-0.3-0.6-0.3
				c-0.5-0.2-0.8-0.5-1.3-0.6c0,0-0.2,0-0.2-0.2c-2.7-1.4-5.3-2.5-8-3.6c0,0-0.2,0-0.2-0.2c-0.6-0.2-1.3-0.5-1.7-0.6
				c-4.9-1.7-9.9-2.8-14.9-3.6c-0.2,0-0.5,0-0.6-0.2c-0.2,0-0.5,0-0.6,0c-0.5,0-0.8-0.2-1.3-0.2c-0.2,0-0.2,0-0.3,0
				c-0.5,0-0.9-0.2-1.4-0.2c-0.2,0-0.3,0-0.6,0c-0.5,0-0.8,0-1.3,0c-0.2,0-0.5,0-0.6,0v44.2v0.2c2.3,0.3,4.5,0.8,6.7,1.4l32.4-32.6
				C205.2,247.9,204,247,202.7,246.2z"/>
			<polygon class="st2" points="126.5,247.5 125.7,246.2 125.7,246.2 			"/>
			<path class="st2" d="M162.6,235.6c-0.5,0-0.9,0-1.6,0c-3.1,0.2-6.3,0.5-9.4,0.9h-0.2c-0.5,0.2-0.9,0.2-1.3,0.3
				c-0.3,0-0.5,0.2-0.8,0.2s-0.5,0.2-0.8,0.2c-0.5,0.2-0.8,0.2-1.3,0.3l0,0c-0.2,0-0.2,0-0.2,0c-6.3,1.4-12.2,3.8-17.9,6.7l0,0l0,0
				c-0.3,0.2-0.8,0.5-1.1,0.6c-0.5,0.3-0.9,0.5-1.3,0.8c-0.3,0.2-0.6,0.3-0.9,0.6l0,0l0,0l0,0c-0.2,0-0.2,0.2-0.3,0.2l0,0l0.8,1.3
				l0,0l22.1,36.6c0.5-0.3,0.9-0.5,1.3-0.8c0.5-0.3,0.9-0.5,1.4-0.6c3.1-1.6,6.4-2.3,9.9-2.8c0.5,0,0.9-0.2,1.6-0.2
				c0.5,0,0.9,0,1.6,0v-44.3C163.7,235.4,163.1,235.6,162.6,235.6z"/>
			<path class="st1" d="M238.4,306.2c0-0.3,0-0.8,0-1.3c0-0.2,0-0.3,0-0.6c0-0.5,0-0.9-0.2-1.4c0-0.2,0-0.3,0-0.3
				c0-0.5-0.2-1.1-0.2-1.6v-0.2l0,0c0-0.6-0.2-1.1-0.2-1.7l0,0c-0.5-3.6-1.3-7-2.3-10.5l0,0c-0.2-0.5-0.3-1.1-0.5-1.6v-0.2
				c-0.2-0.5-0.3-0.9-0.5-1.4c0-0.2-0.2-0.3-0.2-0.3c-0.2-0.5-0.3-0.8-0.5-1.3c-0.2-0.2-0.2-0.3-0.2-0.6c-0.2-0.3-0.3-0.6-0.3-0.9
				c-0.2-0.3-0.2-0.5-0.3-0.8s-0.2-0.5-0.3-0.8c-0.2-0.3-0.3-0.6-0.5-0.9c-0.2-0.2-0.2-0.3-0.3-0.6c-0.2-0.3-0.3-0.8-0.6-1.3
				c0-0.2-0.2-0.3-0.2-0.3c-0.2-0.5-0.5-0.9-0.6-1.4c0,0,0-0.2-0.2-0.2c-0.3-0.5-0.5-0.9-0.8-1.4l0,0c-1.3-2.3-2.7-4.7-4.2-6.9
				L193,300.4c0.8,2.2,1.3,4.4,1.4,6.7h0.2h44.2C238.4,306.7,238.4,306.5,238.4,306.2z"/>
			<path class="st2" d="M194.3,309.9c0,0.5,0,0.9,0,1.6c0,0.5,0,0.9-0.2,1.6c-0.6,5.8-2.8,11.4-6.7,16.1c-0.3,0.3-0.6,0.8-0.9,1.1
				c-0.3,0.3-0.6,0.8-0.9,1.1l31.3,31.3c0.3-0.3,0.6-0.8,1.1-1.1c0.3-0.3,0.6-0.8,1.1-1.1c2.3-2.5,4.4-5.2,6.3-7.8
				c0.2-0.2,0.2-0.2,0.2-0.3c0.2-0.3,0.5-0.6,0.6-0.9c0.2-0.3,0.3-0.6,0.6-0.9c0.2-0.2,0.2-0.3,0.3-0.5c7.2-11.3,11-24,11.6-37
				c0-0.5,0-0.9,0-1.6c0-0.5,0-0.9,0-1.6L194.3,309.9L194.3,309.9z"/>
		</g>
		<path class="st3" d="M251.8,222.4c-8.1-8.1-21.1-8.1-29.3,0c-6.4,6.4-7.7,16.1-3.9,23.8l-45.3,45.1c-7.7-3.9-17.4-2.5-23.8,3.9
			c-8.1,8.1-8.1,21.1,0,29.3c8.1,8.1,21.1,8.1,29.3,0c6.4-6.4,7.7-16.1,3.9-23.8l45.1-45.1c7.7,3.9,17.4,2.5,23.8-3.9
			C259.7,243.5,259.7,230.4,251.8,222.4z"/>
	</g>
	<g>
		<path class="st2" d="M444.7,377.9v-24.6h4.2v24.6H444.7z"/>
		<path class="st2" d="M481.8,377.9L469,360.4v17.5h-4.4v-24.6h4.4l12.5,16.9v-16.9h4.2v24.6H481.8L481.8,377.9z"/>
		<path class="st2" d="M501.5,377.9v-24.6h4.2v24.6H501.5z"/>
		<path class="st2" d="M527.4,377.9v-20.7H520v-3.8h19.1v3.8h-7.4v20.7H527.4z"/>
		<path class="st2" d="M553.4,377.9v-24.6h4.2v24.6H553.4z"/>
		<path class="st2" d="M590.5,377.9l-1.9-4.7h-11.3l-1.9,4.7h-4.9l9.7-24.6h5.3l9.7,24.6H590.5z M583.1,357.7l-4.4,11.7h8.8
			L583.1,357.7z"/>
		<path class="st2" d="M611.9,377.9v-20.7h-7.4v-3.8h19.1v3.8h-7.4v20.7H611.9z"/>
		<path class="st2" d="M637.8,377.9v-24.6h4.2v24.6H637.8z"/>
		<path class="st2" d="M664.9,377.9l-9.7-24.6h4.9l7.4,19.9l7.4-19.9h4.9l-9.7,24.6H664.9z"/>
		<path class="st2" d="M693.1,377.9v-24.6h16.8v3.8h-12.5v6.3h12.2v3.8h-12.2v6.9h12.5v3.8L693.1,377.9L693.1,377.9z"/>
	</g>
	<g>
		<path class="st3" d="M261.3,293.8c0-22.2,16.3-38.1,38.5-38.1c22.2,0,38.4,15.8,38.4,38.1s-16.3,38.1-38.4,38.1
			C277.6,331.9,261.3,316.1,261.3,293.8z M322.1,293.8c0-13.8-8.8-24.1-22.2-24.1c-13.6,0-22.4,10.3-22.4,24.1
			c0,13.6,8.8,24.1,22.4,24.1C313.5,318.1,322.1,307.6,322.1,293.8z"/>
		<path class="st3" d="M346.5,330.6V257H381c16,0,24.7,10.8,24.7,23.6s-8.8,23.6-24.7,23.6h-18.8v26.3H346.5L346.5,330.6z
			 M389.6,280.7c0-6.1-4.7-9.9-11-9.9H362v19.7h16.6C384.9,290.5,389.6,286.8,389.6,280.7z"/>
		<path class="st3" d="M412.7,330.6V257h52.1v13.8h-36.5v15.5h35.7v13.8h-35.7v16.8h36.5v13.8L412.7,330.6L412.7,330.6z"/>
		<path class="st3" d="M525,330.6L490,282.7v47.9h-15.7V257h16.1l34.1,46.2V257h15.7v73.6H525z"/>
		<path class="st3" d="M606.2,330.6l-4.7-12.5h-31.6l-4.7,12.5h-17.5l28.3-73.6h19.6l28.3,73.6H606.2z M585.8,272.7l-11.4,31.6h23
			L585.8,272.7z"/>
		<path class="st3" d="M628.1,330.6V257h34.5c16,0,24.7,10.8,24.7,23.6s-8.8,23.6-24.7,23.6h-18.8v26.3H628.1L628.1,330.6z
			 M671.1,280.7c0-6.1-4.7-9.9-11-9.9h-16.6v19.7h16.6C666.4,290.5,671.1,286.8,671.1,280.7z"/>
		<path class="st3" d="M694.2,330.6V257h15.7v73.6H694.2z"/>
	</g>
</g>
</svg>
